<svg width="40" height="35" viewBox="0 0 40 35" fill="none" xmlns="http://www.w3.org/2000/svg">
<path d="M38.2567 30.4416L37.5649 29.2219L21.242 0.905006C21.0771 0.629035 20.8436 0.400614 20.5642 0.242001C20.2849 0.0833885 19.9692 0 19.6481 0C19.327 0 19.0113 0.0833885 18.732 0.242001C18.4526 0.400614 18.2191 0.629035 18.0541 0.905006L1.73137 29.2219L1.03948 30.4416L0.261072 31.793C0.0509158 32.1305 -0.0364044 32.5304 0.0138669 32.925C0.0641382 33.3197 0.248943 33.6848 0.536994 33.9587C0.822001 34.2565 1.19578 34.4536 1.6022 34.5205C2.00861 34.5873 2.42569 34.5203 2.79082 34.3294C3.0664 34.168 3.29442 33.9364 3.45162 33.6581L5.30415 30.4433H5.29898L5.99087 29.2253L8.06659 25.6251L9.47802 27.8194C10.1284 28.8255 11.0935 29.5871 12.2223 29.985C15.4102 30.9284 17.1824 28.3157 18.4788 26.4065C18.8317 25.8867 19.1854 25.4207 19.6429 25.4207C20.1004 25.4207 20.4541 25.8867 20.807 26.4065C22.1043 28.3123 23.8756 30.9284 27.0635 29.985C28.1923 29.5871 29.1575 28.8255 29.8078 27.8194L31.2192 25.6251L33.295 29.2236L33.9869 30.4416L35.8394 33.6563C35.9966 33.9347 36.2246 34.1663 36.5002 34.3277C36.8653 34.5185 37.2824 34.5856 37.6889 34.5187C38.0953 34.4519 38.4691 34.2547 38.7541 33.9569C39.0421 33.683 39.2269 33.3179 39.2771 32.9233C39.3274 32.5287 39.2401 32.1288 39.0299 31.7912L38.2567 30.4416ZM27.3178 24.9797C27.0842 25.3588 26.8192 25.7175 26.5256 26.0521C26.4416 26.1736 26.3304 26.2736 26.2007 26.3441C26.071 26.4145 25.9266 26.4534 25.7792 26.4576C25.1945 26.4073 24.5796 25.4544 24.0858 24.6895C23.9059 24.4114 23.7398 24.1481 23.5746 23.9341C23.1273 23.3014 22.5431 22.7781 21.8656 22.4031C21.1881 22.0281 20.4348 21.8111 19.6619 21.7684H19.6395C18.8664 21.8111 18.113 22.028 17.4354 22.403C16.7578 22.7779 16.1734 23.3014 15.7259 23.9341C15.565 24.1481 15.3946 24.4114 15.2147 24.6895C14.7209 25.4553 14.1069 26.4082 13.5214 26.4576C13.3738 26.4535 13.2292 26.4147 13.0994 26.3443C12.9695 26.2738 12.8581 26.1737 12.7741 26.0521C12.4805 25.7175 12.2154 25.3588 11.9819 24.9797L10.1207 22.0664L14.3845 14.671L19.6499 14.6632L24.9143 14.671L29.1782 22.0664L27.3178 24.9797Z" fill="white"/>
</svg>
